<?xml version="1.0" encoding="UTF-8" standalone="no"?>
<!DOCTYPE svg PUBLIC "-//W3C//DTD SVG 1.1//EN"
 "http://www.w3.org/Graphics/SVG/1.1/DTD/svg11.dtd">
<!-- Generated by graphviz version 2.40.1 (20161225.0304)
 -->
<!-- Title: dependencies Pages: 1 -->
<svg width="2905pt" height="284pt"
 viewBox="0.00 0.00 2905.00 284.00" xmlns="http://www.w3.org/2000/svg" xmlns:xlink="http://www.w3.org/1999/xlink">
<g id="graph0" class="graph" transform="scale(1 1) rotate(0) translate(4 280)">
<title>dependencies</title>
<polygon fill="#ffffff" stroke="transparent" points="-4,4 -4,-280 2901,-280 2901,4 -4,4"/>
<text text-anchor="start" x="1427.5091" y="-42.4" font-family="sans-serif" font-weight="bold" font-size="14.00" fill="#000000">Legend</text>
<polygon fill="#ffffb3" stroke="transparent" points="1214.5,-10 1214.5,-30 1234.5,-30 1234.5,-10 1214.5,-10"/>
<text text-anchor="start" x="1238.129" y="-15.4" font-family="sans-serif" font-size="14.00" fill="#000000"> &#160;Declarations</text>
<polygon fill="#8dd3c7" stroke="transparent" points="1327.5,-10 1327.5,-30 1347.5,-30 1347.5,-10 1327.5,-10"/>
<text text-anchor="start" x="1351.2251" y="-15.4" font-family="sans-serif" font-size="14.00" fill="#000000"> &#160;Module</text>
<polygon fill="#80b1d3" stroke="transparent" points="1413.5,-10 1413.5,-30 1433.5,-30 1433.5,-10 1413.5,-10"/>
<text text-anchor="start" x="1437.2812" y="-15.4" font-family="sans-serif" font-size="14.00" fill="#000000"> &#160;Bootstrap</text>
<polygon fill="#fdb462" stroke="transparent" points="1510.5,-10 1510.5,-30 1530.5,-30 1530.5,-10 1510.5,-10"/>
<text text-anchor="start" x="1534.1732" y="-15.4" font-family="sans-serif" font-size="14.00" fill="#000000"> &#160;Providers</text>
<polygon fill="#fb8072" stroke="transparent" points="1606.5,-10 1606.5,-30 1626.5,-30 1626.5,-10 1606.5,-10"/>
<text text-anchor="start" x="1630.2258" y="-15.4" font-family="sans-serif" font-size="14.00" fill="#000000"> &#160;Exports</text>
<g id="clust1" class="cluster">
<title>cluster_AppModule</title>
<polygon fill="none" stroke="#000000" stroke-dasharray="1,5" points="8,-70 8,-268 2889,-268 2889,-70 8,-70"/>
</g>
<g id="clust2" class="cluster">
<title>cluster_AppModule_declarations</title>
<polygon fill="none" stroke="#000000" points="1333,-78 1333,-130 2881,-130 2881,-78 1333,-78"/>
</g>
<g id="clust14" class="cluster">
<title>cluster_AppModule_imports</title>
<polygon fill="none" stroke="#000000" points="16,-78 16,-130 1325,-130 1325,-78 16,-78"/>
</g>
<g id="clust16" class="cluster">
<title>cluster_AppModule_bootstrap</title>
<polygon fill="none" stroke="#000000" points="1494,-208 1494,-260 1618,-260 1618,-208 1494,-208"/>
</g>
<!-- AppComponent -->
<g id="node1" class="node">
<title>AppComponent</title>
<polygon fill="#ffffb3" stroke="#000000" points="2872.9399,-122 2767.0601,-122 2767.0601,-86 2872.9399,-86 2872.9399,-122"/>
<text text-anchor="middle" x="2820" y="-99.8" font-family="Times,serif" font-size="14.00" fill="#000000">AppComponent</text>
</g>
<!-- AppModule -->
<g id="node12" class="node">
<title>AppModule</title>
<polygon fill="#8dd3c7" stroke="#000000" points="1597.6571,-187 1594.6571,-191 1573.6571,-191 1570.6571,-187 1514.3429,-187 1514.3429,-151 1597.6571,-151 1597.6571,-187"/>
<text text-anchor="middle" x="1556" y="-164.8" font-family="Times,serif" font-size="14.00" fill="#000000">AppModule</text>
</g>
<!-- AppComponent&#45;&gt;AppModule -->
<g id="edge1" class="edge">
<title>AppComponent&#45;&gt;AppModule</title>
<path fill="none" stroke="#000000" d="M2820,-122.1532C2820,-145.7566 2820,-184 2820,-184 2820,-184 1607.6955,-184 1607.6955,-184"/>
<polygon fill="#000000" stroke="#000000" points="1607.6956,-180.5001 1597.6955,-184 1607.6955,-187.5001 1607.6956,-180.5001"/>
</g>
<!-- MainComponent -->
<g id="node2" class="node">
<title>MainComponent</title>
<polygon fill="#ffffb3" stroke="#000000" points="2749.3823,-122 2638.6177,-122 2638.6177,-86 2749.3823,-86 2749.3823,-122"/>
<text text-anchor="middle" x="2694" y="-99.8" font-family="Times,serif" font-size="14.00" fill="#000000">MainComponent</text>
</g>
<!-- MainComponent&#45;&gt;AppModule -->
<g id="edge2" class="edge">
<title>MainComponent&#45;&gt;AppModule</title>
<path fill="none" stroke="#000000" d="M2694,-122.0109C2694,-144.4852 2694,-180 2694,-180 2694,-180 1607.8517,-180 1607.8517,-180"/>
<polygon fill="#000000" stroke="#000000" points="1607.8517,-176.5001 1597.8517,-180 1607.8516,-183.5001 1607.8517,-176.5001"/>
</g>
<!-- HeaderComponent -->
<g id="node3" class="node">
<title>HeaderComponent</title>
<polygon fill="#ffffb3" stroke="#000000" points="2620.7437,-122 2499.2563,-122 2499.2563,-86 2620.7437,-86 2620.7437,-122"/>
<text text-anchor="middle" x="2560" y="-99.8" font-family="Times,serif" font-size="14.00" fill="#000000">HeaderComponent</text>
</g>
<!-- HeaderComponent&#45;&gt;AppModule -->
<g id="edge3" class="edge">
<title>HeaderComponent&#45;&gt;AppModule</title>
<path fill="none" stroke="#000000" d="M2560,-122.0449C2560,-143.6623 2560,-177 2560,-177 2560,-177 1607.8624,-177 1607.8624,-177"/>
<polygon fill="#000000" stroke="#000000" points="1607.8624,-173.5001 1597.8624,-177 1607.8624,-180.5001 1607.8624,-173.5001"/>
</g>
<!-- RegisterComponent -->
<g id="node4" class="node">
<title>RegisterComponent</title>
<polygon fill="#ffffb3" stroke="#000000" points="2480.9846,-122 2353.0154,-122 2353.0154,-86 2480.9846,-86 2480.9846,-122"/>
<text text-anchor="middle" x="2417" y="-99.8" font-family="Times,serif" font-size="14.00" fill="#000000">RegisterComponent</text>
</g>
<!-- RegisterComponent&#45;&gt;AppModule -->
<g id="edge4" class="edge">
<title>RegisterComponent&#45;&gt;AppModule</title>
<path fill="none" stroke="#000000" d="M2417,-122.1289C2417,-142.5724 2417,-173 2417,-173 2417,-173 1607.8188,-173 1607.8188,-173"/>
<polygon fill="#000000" stroke="#000000" points="1607.8188,-169.5001 1597.8188,-173 1607.8188,-176.5001 1607.8188,-169.5001"/>
</g>
<!-- LoginComponent -->
<g id="node5" class="node">
<title>LoginComponent</title>
<polygon fill="#ffffb3" stroke="#000000" points="2335.2758,-122 2220.7242,-122 2220.7242,-86 2335.2758,-86 2335.2758,-122"/>
<text text-anchor="middle" x="2278" y="-99.8" font-family="Times,serif" font-size="14.00" fill="#000000">LoginComponent</text>
</g>
<!-- LoginComponent&#45;&gt;AppModule -->
<g id="edge5" class="edge">
<title>LoginComponent&#45;&gt;AppModule</title>
<path fill="none" stroke="#000000" d="M2278,-122.1061C2278,-141.3391 2278,-169 2278,-169 2278,-169 1607.6744,-169 1607.6744,-169"/>
<polygon fill="#000000" stroke="#000000" points="1607.6745,-165.5001 1597.6744,-169 1607.6744,-172.5001 1607.6745,-165.5001"/>
</g>
<!-- FilmCardComponent -->
<g id="node6" class="node">
<title>FilmCardComponent</title>
<polygon fill="#ffffb3" stroke="#000000" points="2202.4986,-122 2067.5014,-122 2067.5014,-86 2202.4986,-86 2202.4986,-122"/>
<text text-anchor="middle" x="2135" y="-99.8" font-family="Times,serif" font-size="14.00" fill="#000000">FilmCardComponent</text>
</g>
<!-- FilmCardComponent&#45;&gt;AppModule -->
<g id="edge6" class="edge">
<title>FilmCardComponent&#45;&gt;AppModule</title>
<path fill="none" stroke="#000000" d="M2135,-122.2667C2135,-140.5552 2135,-166 2135,-166 2135,-166 1608.1066,-166 1608.1066,-166"/>
<polygon fill="#000000" stroke="#000000" points="1608.1067,-162.5001 1598.1066,-166 1608.1066,-169.5001 1608.1067,-162.5001"/>
</g>
<!-- EditFilmComponent -->
<g id="node7" class="node">
<title>EditFilmComponent</title>
<polygon fill="#ffffb3" stroke="#000000" points="2049.6207,-122 1918.3793,-122 1918.3793,-86 2049.6207,-86 2049.6207,-122"/>
<text text-anchor="middle" x="1984" y="-99.8" font-family="Times,serif" font-size="14.00" fill="#000000">EditFilmComponent</text>
</g>
<!-- EditFilmComponent&#45;&gt;AppModule -->
<g id="edge7" class="edge">
<title>EditFilmComponent&#45;&gt;AppModule</title>
<path fill="none" stroke="#000000" d="M1984,-122.0336C1984,-139.0597 1984,-162 1984,-162 1984,-162 1607.8177,-162 1607.8177,-162"/>
<polygon fill="#000000" stroke="#000000" points="1607.8178,-158.5001 1597.8177,-162 1607.8177,-165.5001 1607.8178,-158.5001"/>
</g>
<!-- JournalComponent -->
<g id="node8" class="node">
<title>JournalComponent</title>
<polygon fill="#ffffb3" stroke="#000000" points="1900.0436,-122 1777.9564,-122 1777.9564,-86 1900.0436,-86 1900.0436,-122"/>
<text text-anchor="middle" x="1839" y="-99.8" font-family="Times,serif" font-size="14.00" fill="#000000">JournalComponent</text>
</g>
<!-- JournalComponent&#45;&gt;AppModule -->
<g id="edge8" class="edge">
<title>JournalComponent&#45;&gt;AppModule</title>
<path fill="none" stroke="#000000" d="M1839,-122.0091C1839,-138.0494 1839,-159 1839,-159 1839,-159 1607.7576,-159 1607.7576,-159"/>
<polygon fill="#000000" stroke="#000000" points="1607.7577,-155.5001 1597.7576,-159 1607.7576,-162.5001 1607.7577,-155.5001"/>
</g>
<!-- OrdersComponent -->
<g id="node9" class="node">
<title>OrdersComponent</title>
<polygon fill="#ffffb3" stroke="#000000" points="1759.9201,-122 1640.0799,-122 1640.0799,-86 1759.9201,-86 1759.9201,-122"/>
<text text-anchor="middle" x="1700" y="-99.8" font-family="Times,serif" font-size="14.00" fill="#000000">OrdersComponent</text>
</g>
<!-- OrdersComponent&#45;&gt;AppModule -->
<g id="edge9" class="edge">
<title>OrdersComponent&#45;&gt;AppModule</title>
<path fill="none" stroke="#000000" d="M1700,-122.1243C1700,-136.7832 1700,-155 1700,-155 1700,-155 1608.0379,-155 1608.0379,-155"/>
<polygon fill="#000000" stroke="#000000" points="1608.0379,-151.5001 1598.0379,-155 1608.0378,-158.5001 1608.0379,-151.5001"/>
</g>
<!-- RequestsComponent -->
<g id="node10" class="node">
<title>RequestsComponent</title>
<polygon fill="#ffffb3" stroke="#000000" points="1621.8781,-122 1490.1219,-122 1490.1219,-86 1621.8781,-86 1621.8781,-122"/>
<text text-anchor="middle" x="1556" y="-99.8" font-family="Times,serif" font-size="14.00" fill="#000000">RequestsComponent</text>
</g>
<!-- RequestsComponent&#45;&gt;AppModule -->
<g id="edge10" class="edge">
<title>RequestsComponent&#45;&gt;AppModule</title>
<path fill="none" stroke="#000000" d="M1556,-122.1061C1556,-122.1061 1556,-140.991 1556,-140.991"/>
<polygon fill="#000000" stroke="#000000" points="1552.5001,-140.9909 1556,-150.991 1559.5001,-140.991 1552.5001,-140.9909"/>
</g>
<!-- FilmInfoComponent -->
<g id="node11" class="node">
<title>FilmInfoComponent</title>
<polygon fill="#ffffb3" stroke="#000000" points="1472.608,-122 1341.392,-122 1341.392,-86 1472.608,-86 1472.608,-122"/>
<text text-anchor="middle" x="1407" y="-99.8" font-family="Times,serif" font-size="14.00" fill="#000000">FilmInfoComponent</text>
</g>
<!-- FilmInfoComponent&#45;&gt;AppModule -->
<g id="edge11" class="edge">
<title>FilmInfoComponent&#45;&gt;AppModule</title>
<path fill="none" stroke="#000000" d="M1407,-122.1243C1407,-136.7832 1407,-155 1407,-155 1407,-155 1504.0987,-155 1504.0987,-155"/>
<polygon fill="#000000" stroke="#000000" points="1504.0987,-158.5001 1514.0987,-155 1504.0986,-151.5001 1504.0987,-158.5001"/>
</g>
<!-- AppComponent  -->
<g id="node21" class="node">
<title>AppComponent </title>
<polygon fill="#80b1d3" stroke="#000000" points="1610.439,-252 1501.561,-252 1501.561,-216 1610.439,-216 1610.439,-252"/>
<text text-anchor="middle" x="1556" y="-229.8" font-family="Times,serif" font-size="14.00" fill="#000000">AppComponent </text>
</g>
<!-- AppModule&#45;&gt;AppComponent  -->
<g id="edge20" class="edge">
<title>AppModule&#45;&gt;AppComponent </title>
<path fill="none" stroke="#000000" stroke-dasharray="1,5" d="M1556,-187.1061C1556,-187.1061 1556,-205.991 1556,-205.991"/>
<polygon fill="#000000" stroke="#000000" points="1552.5001,-205.9909 1556,-215.991 1559.5001,-205.991 1552.5001,-205.9909"/>
</g>
<!-- BrowserModule -->
<g id="node13" class="node">
<title>BrowserModule</title>
<polygon fill="#8dd3c7" stroke="#000000" points="1317.4734,-122 1314.4734,-126 1293.4734,-126 1290.4734,-122 1210.5266,-122 1210.5266,-86 1317.4734,-86 1317.4734,-122"/>
<text text-anchor="middle" x="1264" y="-99.8" font-family="Times,serif" font-size="14.00" fill="#000000">BrowserModule</text>
</g>
<!-- BrowserModule&#45;&gt;AppModule -->
<g id="edge12" class="edge">
<title>BrowserModule&#45;&gt;AppModule</title>
<path fill="none" stroke="#000000" d="M1264,-122.0091C1264,-138.0494 1264,-159 1264,-159 1264,-159 1504.1635,-159 1504.1635,-159"/>
<polygon fill="#000000" stroke="#000000" points="1504.1636,-162.5001 1514.1635,-159 1504.1635,-155.5001 1504.1636,-162.5001"/>
</g>
<!-- AppRoutingModule -->
<g id="node14" class="node">
<title>AppRoutingModule</title>
<polygon fill="#8dd3c7" stroke="#000000" points="1192.2744,-122 1189.2744,-126 1168.2744,-126 1165.2744,-122 1063.7256,-122 1063.7256,-86 1192.2744,-86 1192.2744,-122"/>
<text text-anchor="middle" x="1128" y="-99.8" font-family="Times,serif" font-size="14.00" fill="#000000">AppRoutingModule</text>
</g>
<!-- AppRoutingModule&#45;&gt;AppModule -->
<g id="edge13" class="edge">
<title>AppRoutingModule&#45;&gt;AppModule</title>
<path fill="none" stroke="#000000" d="M1128,-122.0336C1128,-139.0597 1128,-162 1128,-162 1128,-162 1504.1823,-162 1504.1823,-162"/>
<polygon fill="#000000" stroke="#000000" points="1504.1823,-165.5001 1514.1823,-162 1504.1822,-158.5001 1504.1823,-165.5001"/>
</g>
<!-- HttpClientModule -->
<g id="node15" class="node">
<title>HttpClientModule</title>
<polygon fill="#8dd3c7" stroke="#000000" points="1045.1611,-122 1042.1611,-126 1021.1611,-126 1018.1611,-122 926.8389,-122 926.8389,-86 1045.1611,-86 1045.1611,-122"/>
<text text-anchor="middle" x="986" y="-99.8" font-family="Times,serif" font-size="14.00" fill="#000000">HttpClientModule</text>
</g>
<!-- HttpClientModule&#45;&gt;AppModule -->
<g id="edge14" class="edge">
<title>HttpClientModule&#45;&gt;AppModule</title>
<path fill="none" stroke="#000000" d="M986,-122.2667C986,-140.5552 986,-166 986,-166 986,-166 1504.0865,-166 1504.0865,-166"/>
<polygon fill="#000000" stroke="#000000" points="1504.0866,-169.5001 1514.0865,-166 1504.0865,-162.5001 1504.0866,-169.5001"/>
</g>
<!-- ReactiveFormsModule -->
<g id="node16" class="node">
<title>ReactiveFormsModule</title>
<polygon fill="#8dd3c7" stroke="#000000" points="909.3047,-122 906.3047,-126 885.3047,-126 882.3047,-122 764.6953,-122 764.6953,-86 909.3047,-86 909.3047,-122"/>
<text text-anchor="middle" x="837" y="-99.8" font-family="Times,serif" font-size="14.00" fill="#000000">ReactiveFormsModule</text>
</g>
<!-- ReactiveFormsModule&#45;&gt;AppModule -->
<g id="edge15" class="edge">
<title>ReactiveFormsModule&#45;&gt;AppModule</title>
<path fill="none" stroke="#000000" d="M837,-122.1061C837,-141.3391 837,-169 837,-169 837,-169 1504.2357,-169 1504.2357,-169"/>
<polygon fill="#000000" stroke="#000000" points="1504.2358,-172.5001 1514.2357,-169 1504.2357,-165.5001 1504.2358,-172.5001"/>
</g>
<!-- FormsModule -->
<g id="node17" class="node">
<title>FormsModule</title>
<polygon fill="#8dd3c7" stroke="#000000" points="746.8288,-122 743.8288,-126 722.8288,-126 719.8288,-122 651.1712,-122 651.1712,-86 746.8288,-86 746.8288,-122"/>
<text text-anchor="middle" x="699" y="-99.8" font-family="Times,serif" font-size="14.00" fill="#000000">FormsModule</text>
</g>
<!-- FormsModule&#45;&gt;AppModule -->
<g id="edge16" class="edge">
<title>FormsModule&#45;&gt;AppModule</title>
<path fill="none" stroke="#000000" d="M699,-122.1289C699,-142.5724 699,-173 699,-173 699,-173 1504.085,-173 1504.085,-173"/>
<polygon fill="#000000" stroke="#000000" points="1504.085,-176.5001 1514.085,-173 1504.0849,-169.5001 1504.085,-176.5001"/>
</g>
<!-- AngularFireModule.initializeApp(args) -->
<g id="node18" class="node">
<title>AngularFireModule.initializeApp(args)</title>
<polygon fill="#8dd3c7" stroke="#000000" points="633.7057,-122 630.7057,-126 609.7057,-126 606.7057,-122 396.2943,-122 396.2943,-86 633.7057,-86 633.7057,-122"/>
<text text-anchor="middle" x="515" y="-99.8" font-family="Times,serif" font-size="14.00" fill="#000000">AngularFireModule.initializeApp(args)</text>
</g>
<!-- AngularFireModule.initializeApp(args)&#45;&gt;AppModule -->
<g id="edge17" class="edge">
<title>AngularFireModule.initializeApp(args)&#45;&gt;AppModule</title>
<path fill="none" stroke="#000000" d="M515,-122.0449C515,-143.6623 515,-177 515,-177 515,-177 1504.2263,-177 1504.2263,-177"/>
<polygon fill="#000000" stroke="#000000" points="1504.2263,-180.5001 1514.2263,-177 1504.2262,-173.5001 1504.2263,-180.5001"/>
</g>
<!-- AngularFireAnalyticsModule -->
<g id="node19" class="node">
<title>AngularFireAnalyticsModule</title>
<polygon fill="#8dd3c7" stroke="#000000" points="378.6232,-122 375.6232,-126 354.6232,-126 351.6232,-122 197.3768,-122 197.3768,-86 378.6232,-86 378.6232,-122"/>
<text text-anchor="middle" x="288" y="-99.8" font-family="Times,serif" font-size="14.00" fill="#000000">AngularFireAnalyticsModule</text>
</g>
<!-- AngularFireAnalyticsModule&#45;&gt;AppModule -->
<g id="edge18" class="edge">
<title>AngularFireAnalyticsModule&#45;&gt;AppModule</title>
<path fill="none" stroke="#000000" d="M288,-122.0109C288,-144.4852 288,-180 288,-180 288,-180 1504.1725,-180 1504.1725,-180"/>
<polygon fill="#000000" stroke="#000000" points="1504.1726,-183.5001 1514.1725,-180 1504.1725,-176.5001 1504.1726,-183.5001"/>
</g>
<!-- AngularFirestoreModule -->
<g id="node20" class="node">
<title>AngularFirestoreModule</title>
<polygon fill="#8dd3c7" stroke="#000000" points="179.6811,-122 176.6811,-126 155.6811,-126 152.6811,-122 24.3189,-122 24.3189,-86 179.6811,-86 179.6811,-122"/>
<text text-anchor="middle" x="102" y="-99.8" font-family="Times,serif" font-size="14.00" fill="#000000">AngularFirestoreModule</text>
</g>
<!-- AngularFirestoreModule&#45;&gt;AppModule -->
<g id="edge19" class="edge">
<title>AngularFirestoreModule&#45;&gt;AppModule</title>
<path fill="none" stroke="#000000" d="M102,-122.1532C102,-145.7566 102,-184 102,-184 102,-184 1504.0527,-184 1504.0527,-184"/>
<polygon fill="#000000" stroke="#000000" points="1504.0527,-187.5001 1514.0527,-184 1504.0526,-180.5001 1504.0527,-187.5001"/>
</g>
</g>
</svg>
