<?xml version="1.0" encoding="UTF-8" standalone="no"?>
<!DOCTYPE svg PUBLIC "-//W3C//DTD SVG 1.1//EN"
 "http://www.w3.org/Graphics/SVG/1.1/DTD/svg11.dtd">
<!-- Generated by graphviz version 2.40.1 (20161225.0304)
 -->
<!-- Title: dependencies Pages: 1 -->
<svg width="3249pt" height="290pt"
 viewBox="0.00 0.00 3249.00 290.00" xmlns="http://www.w3.org/2000/svg" xmlns:xlink="http://www.w3.org/1999/xlink">
<g id="graph0" class="graph" transform="scale(1 1) rotate(0) translate(4 286)">
<title>dependencies</title>
<polygon fill="#ffffff" stroke="transparent" points="-4,4 -4,-286 3245,-286 3245,4 -4,4"/>
<text text-anchor="start" x="1599.5091" y="-42.4" font-family="sans-serif" font-weight="bold" font-size="14.00" fill="#000000">Legend</text>
<polygon fill="#ffffb3" stroke="transparent" points="1386.5,-10 1386.5,-30 1406.5,-30 1406.5,-10 1386.5,-10"/>
<text text-anchor="start" x="1410.129" y="-15.4" font-family="sans-serif" font-size="14.00" fill="#000000"> &#160;Declarations</text>
<polygon fill="#8dd3c7" stroke="transparent" points="1499.5,-10 1499.5,-30 1519.5,-30 1519.5,-10 1499.5,-10"/>
<text text-anchor="start" x="1523.2251" y="-15.4" font-family="sans-serif" font-size="14.00" fill="#000000"> &#160;Module</text>
<polygon fill="#80b1d3" stroke="transparent" points="1585.5,-10 1585.5,-30 1605.5,-30 1605.5,-10 1585.5,-10"/>
<text text-anchor="start" x="1609.2812" y="-15.4" font-family="sans-serif" font-size="14.00" fill="#000000"> &#160;Bootstrap</text>
<polygon fill="#fdb462" stroke="transparent" points="1682.5,-10 1682.5,-30 1702.5,-30 1702.5,-10 1682.5,-10"/>
<text text-anchor="start" x="1706.1732" y="-15.4" font-family="sans-serif" font-size="14.00" fill="#000000"> &#160;Providers</text>
<polygon fill="#fb8072" stroke="transparent" points="1778.5,-10 1778.5,-30 1798.5,-30 1798.5,-10 1778.5,-10"/>
<text text-anchor="start" x="1802.2258" y="-15.4" font-family="sans-serif" font-size="14.00" fill="#000000"> &#160;Exports</text>
<g id="clust1" class="cluster">
<title>cluster_AppModule</title>
<polygon fill="none" stroke="#000000" stroke-dasharray="1,5" points="8,-70 8,-274 2889,-274 2889,-70 8,-70"/>
</g>
<g id="clust2" class="cluster">
<title>cluster_AppModule_declarations</title>
<polygon fill="none" stroke="#000000" points="16,-78 16,-130 1564,-130 1564,-78 16,-78"/>
</g>
<g id="clust14" class="cluster">
<title>cluster_AppModule_imports</title>
<polygon fill="none" stroke="#000000" points="1572,-78 1572,-130 2881,-130 2881,-78 1572,-78"/>
</g>
<g id="clust16" class="cluster">
<title>cluster_AppModule_bootstrap</title>
<polygon fill="none" stroke="#000000" points="1315,-214 1315,-266 1439,-266 1439,-214 1315,-214"/>
</g>
<g id="clust18" class="cluster">
<title>cluster_AppRoutingModule</title>
<polygon fill="none" stroke="#000000" stroke-dasharray="1,5" points="2897,-138 2897,-206 3233,-206 3233,-138 2897,-138"/>
</g>
<g id="clust20" class="cluster">
<title>cluster_AppRoutingModule_imports</title>
<polygon fill="none" stroke="#000000" points="3031,-146 3031,-198 3225,-198 3225,-146 3031,-146"/>
</g>
<g id="clust21" class="cluster">
<title>cluster_AppRoutingModule_exports</title>
<polygon fill="none" stroke="#000000" points="2905,-146 2905,-198 3023,-198 3023,-146 2905,-146"/>
</g>
<!-- AppComponent -->
<g id="node1" class="node">
<title>AppComponent</title>
<polygon fill="#ffffb3" stroke="#000000" points="1555.9399,-122 1450.0601,-122 1450.0601,-86 1555.9399,-86 1555.9399,-122"/>
<text text-anchor="middle" x="1503" y="-99.8" font-family="Times,serif" font-size="14.00" fill="#000000">AppComponent</text>
</g>
<!-- AppModule -->
<g id="node12" class="node">
<title>AppModule</title>
<polygon fill="#8dd3c7" stroke="#000000" points="1418.6571,-190 1415.6571,-194 1394.6571,-194 1391.6571,-190 1335.3429,-190 1335.3429,-154 1418.6571,-154 1418.6571,-190"/>
<text text-anchor="middle" x="1377" y="-167.8" font-family="Times,serif" font-size="14.00" fill="#000000">AppModule</text>
</g>
<!-- AppComponent&#45;&gt;AppModule -->
<g id="edge1" class="edge">
<title>AppComponent&#45;&gt;AppModule</title>
<path fill="none" stroke="#000000" d="M1503,-122.2819C1503,-137.9478 1503,-158 1503,-158 1503,-158 1428.9562,-158 1428.9562,-158"/>
<polygon fill="#000000" stroke="#000000" points="1428.9562,-154.5001 1418.9562,-158 1428.9561,-161.5001 1428.9562,-154.5001"/>
</g>
<!-- MainComponent -->
<g id="node2" class="node">
<title>MainComponent</title>
<polygon fill="#ffffb3" stroke="#000000" points="1432.3823,-122 1321.6177,-122 1321.6177,-86 1432.3823,-86 1432.3823,-122"/>
<text text-anchor="middle" x="1377" y="-99.8" font-family="Times,serif" font-size="14.00" fill="#000000">MainComponent</text>
</g>
<!-- MainComponent&#45;&gt;AppModule -->
<g id="edge2" class="edge">
<title>MainComponent&#45;&gt;AppModule</title>
<path fill="none" stroke="#000000" d="M1377,-122.2228C1377,-122.2228 1377,-143.7269 1377,-143.7269"/>
<polygon fill="#000000" stroke="#000000" points="1373.5001,-143.7269 1377,-153.7269 1380.5001,-143.727 1373.5001,-143.7269"/>
</g>
<!-- HeaderComponent -->
<g id="node3" class="node">
<title>HeaderComponent</title>
<polygon fill="#ffffb3" stroke="#000000" points="1303.7437,-122 1182.2563,-122 1182.2563,-86 1303.7437,-86 1303.7437,-122"/>
<text text-anchor="middle" x="1243" y="-99.8" font-family="Times,serif" font-size="14.00" fill="#000000">HeaderComponent</text>
</g>
<!-- HeaderComponent&#45;&gt;AppModule -->
<g id="edge3" class="edge">
<title>HeaderComponent&#45;&gt;AppModule</title>
<path fill="none" stroke="#000000" d="M1243,-122.2819C1243,-137.9478 1243,-158 1243,-158 1243,-158 1325.3361,-158 1325.3361,-158"/>
<polygon fill="#000000" stroke="#000000" points="1325.3361,-161.5001 1335.3361,-158 1325.3361,-154.5001 1325.3361,-161.5001"/>
</g>
<!-- RegisterComponent -->
<g id="node4" class="node">
<title>RegisterComponent</title>
<polygon fill="#ffffb3" stroke="#000000" points="1163.9846,-122 1036.0154,-122 1036.0154,-86 1163.9846,-86 1163.9846,-122"/>
<text text-anchor="middle" x="1100" y="-99.8" font-family="Times,serif" font-size="14.00" fill="#000000">RegisterComponent</text>
</g>
<!-- RegisterComponent&#45;&gt;AppModule -->
<g id="edge4" class="edge">
<title>RegisterComponent&#45;&gt;AppModule</title>
<path fill="none" stroke="#000000" d="M1100,-122.0336C1100,-139.0597 1100,-162 1100,-162 1100,-162 1325.2304,-162 1325.2304,-162"/>
<polygon fill="#000000" stroke="#000000" points="1325.2304,-165.5001 1335.2304,-162 1325.2304,-158.5001 1325.2304,-165.5001"/>
</g>
<!-- LoginComponent -->
<g id="node5" class="node">
<title>LoginComponent</title>
<polygon fill="#ffffb3" stroke="#000000" points="1018.2758,-122 903.7242,-122 903.7242,-86 1018.2758,-86 1018.2758,-122"/>
<text text-anchor="middle" x="961" y="-99.8" font-family="Times,serif" font-size="14.00" fill="#000000">LoginComponent</text>
</g>
<!-- LoginComponent&#45;&gt;AppModule -->
<g id="edge5" class="edge">
<title>LoginComponent&#45;&gt;AppModule</title>
<path fill="none" stroke="#000000" d="M961,-122.302C961,-140.2699 961,-165 961,-165 961,-165 1325.2076,-165 1325.2076,-165"/>
<polygon fill="#000000" stroke="#000000" points="1325.2077,-168.5001 1335.2076,-165 1325.2076,-161.5001 1325.2077,-168.5001"/>
</g>
<!-- FilmCardComponent -->
<g id="node6" class="node">
<title>FilmCardComponent</title>
<polygon fill="#ffffb3" stroke="#000000" points="885.4986,-122 750.5014,-122 750.5014,-86 885.4986,-86 885.4986,-122"/>
<text text-anchor="middle" x="818" y="-99.8" font-family="Times,serif" font-size="14.00" fill="#000000">FilmCardComponent</text>
</g>
<!-- FilmCardComponent&#45;&gt;AppModule -->
<g id="edge6" class="edge">
<title>FilmCardComponent&#45;&gt;AppModule</title>
<path fill="none" stroke="#000000" d="M818,-122.1061C818,-141.3391 818,-169 818,-169 818,-169 1324.9841,-169 1324.9841,-169"/>
<polygon fill="#000000" stroke="#000000" points="1324.9842,-172.5001 1334.9841,-169 1324.9841,-165.5001 1324.9842,-172.5001"/>
</g>
<!-- EditFilmComponent -->
<g id="node7" class="node">
<title>EditFilmComponent</title>
<polygon fill="#ffffb3" stroke="#000000" points="732.6207,-122 601.3793,-122 601.3793,-86 732.6207,-86 732.6207,-122"/>
<text text-anchor="middle" x="667" y="-99.8" font-family="Times,serif" font-size="14.00" fill="#000000">EditFilmComponent</text>
</g>
<!-- EditFilmComponent&#45;&gt;AppModule -->
<g id="edge7" class="edge">
<title>EditFilmComponent&#45;&gt;AppModule</title>
<path fill="none" stroke="#000000" d="M667,-122.2228C667,-142.3652 667,-172 667,-172 667,-172 1325.237,-172 1325.237,-172"/>
<polygon fill="#000000" stroke="#000000" points="1325.237,-175.5001 1335.237,-172 1325.2369,-168.5001 1325.237,-175.5001"/>
</g>
<!-- JournalComponent -->
<g id="node8" class="node">
<title>JournalComponent</title>
<polygon fill="#ffffb3" stroke="#000000" points="583.0436,-122 460.9564,-122 460.9564,-86 583.0436,-86 583.0436,-122"/>
<text text-anchor="middle" x="522" y="-99.8" font-family="Times,serif" font-size="14.00" fill="#000000">JournalComponent</text>
</g>
<!-- JournalComponent&#45;&gt;AppModule -->
<g id="edge8" class="edge">
<title>JournalComponent&#45;&gt;AppModule</title>
<path fill="none" stroke="#000000" d="M522,-122.1686C522,-143.498 522,-176 522,-176 522,-176 1325.1828,-176 1325.1828,-176"/>
<polygon fill="#000000" stroke="#000000" points="1325.1828,-179.5001 1335.1828,-176 1325.1828,-172.5001 1325.1828,-179.5001"/>
</g>
<!-- OrdersComponent -->
<g id="node9" class="node">
<title>OrdersComponent</title>
<polygon fill="#ffffb3" stroke="#000000" points="442.9201,-122 323.0799,-122 323.0799,-86 442.9201,-86 442.9201,-122"/>
<text text-anchor="middle" x="383" y="-99.8" font-family="Times,serif" font-size="14.00" fill="#000000">OrdersComponent</text>
</g>
<!-- OrdersComponent&#45;&gt;AppModule -->
<g id="edge9" class="edge">
<title>OrdersComponent&#45;&gt;AppModule</title>
<path fill="none" stroke="#000000" d="M383,-122.0109C383,-144.4852 383,-180 383,-180 383,-180 1325.2398,-180 1325.2398,-180"/>
<polygon fill="#000000" stroke="#000000" points="1325.2398,-183.5001 1335.2398,-180 1325.2398,-176.5001 1325.2398,-183.5001"/>
</g>
<!-- RequestsComponent -->
<g id="node10" class="node">
<title>RequestsComponent</title>
<polygon fill="#ffffb3" stroke="#000000" points="304.8781,-122 173.1219,-122 173.1219,-86 304.8781,-86 304.8781,-122"/>
<text text-anchor="middle" x="239" y="-99.8" font-family="Times,serif" font-size="14.00" fill="#000000">RequestsComponent</text>
</g>
<!-- RequestsComponent&#45;&gt;AppModule -->
<g id="edge10" class="edge">
<title>RequestsComponent&#45;&gt;AppModule</title>
<path fill="none" stroke="#000000" d="M239,-122.3228C239,-145.6602 239,-183 239,-183 239,-183 1325.1483,-183 1325.1483,-183"/>
<polygon fill="#000000" stroke="#000000" points="1325.1484,-186.5001 1335.1483,-183 1325.1483,-179.5001 1325.1484,-186.5001"/>
</g>
<!-- FilmInfoComponent -->
<g id="node11" class="node">
<title>FilmInfoComponent</title>
<polygon fill="#ffffb3" stroke="#000000" points="155.608,-122 24.392,-122 24.392,-86 155.608,-86 155.608,-122"/>
<text text-anchor="middle" x="90" y="-99.8" font-family="Times,serif" font-size="14.00" fill="#000000">FilmInfoComponent</text>
</g>
<!-- FilmInfoComponent&#45;&gt;AppModule -->
<g id="edge11" class="edge">
<title>FilmInfoComponent&#45;&gt;AppModule</title>
<path fill="none" stroke="#000000" d="M90,-122.0098C90,-146.4207 90,-187 90,-187 90,-187 1325.2746,-187 1325.2746,-187"/>
<polygon fill="#000000" stroke="#000000" points="1325.2746,-190.5001 1335.2746,-187 1325.2746,-183.5001 1325.2746,-190.5001"/>
</g>
<!-- AppComponent  -->
<g id="node21" class="node">
<title>AppComponent </title>
<polygon fill="#80b1d3" stroke="#000000" points="1431.439,-258 1322.561,-258 1322.561,-222 1431.439,-222 1431.439,-258"/>
<text text-anchor="middle" x="1377" y="-235.8" font-family="Times,serif" font-size="14.00" fill="#000000">AppComponent </text>
</g>
<!-- AppModule&#45;&gt;AppComponent  -->
<g id="edge20" class="edge">
<title>AppModule&#45;&gt;AppComponent </title>
<path fill="none" stroke="#000000" stroke-dasharray="1,5" d="M1377,-190.2228C1377,-190.2228 1377,-211.7269 1377,-211.7269"/>
<polygon fill="#000000" stroke="#000000" points="1373.5001,-211.7269 1377,-221.7269 1380.5001,-211.727 1373.5001,-211.7269"/>
</g>
<!-- BrowserModule -->
<g id="node13" class="node">
<title>BrowserModule</title>
<polygon fill="#8dd3c7" stroke="#000000" points="2726.4734,-122 2723.4734,-126 2702.4734,-126 2699.4734,-122 2619.5266,-122 2619.5266,-86 2726.4734,-86 2726.4734,-122"/>
<text text-anchor="middle" x="2673" y="-99.8" font-family="Times,serif" font-size="14.00" fill="#000000">BrowserModule</text>
</g>
<!-- BrowserModule&#45;&gt;AppModule -->
<g id="edge12" class="edge">
<title>BrowserModule&#45;&gt;AppModule</title>
<path fill="none" stroke="#000000" d="M2673,-122.3228C2673,-145.6602 2673,-183 2673,-183 2673,-183 1429.0172,-183 1429.0172,-183"/>
<polygon fill="#000000" stroke="#000000" points="1429.0172,-179.5001 1419.0172,-183 1429.0171,-186.5001 1429.0172,-179.5001"/>
</g>
<!-- AppRoutingModule -->
<g id="node14" class="node">
<title>AppRoutingModule</title>
<polygon fill="#8dd3c7" stroke="#000000" points="2873.2744,-122 2870.2744,-126 2849.2744,-126 2846.2744,-122 2744.7256,-122 2744.7256,-86 2873.2744,-86 2873.2744,-122"/>
<text text-anchor="middle" x="2809" y="-99.8" font-family="Times,serif" font-size="14.00" fill="#000000">AppRoutingModule</text>
</g>
<!-- AppRoutingModule&#45;&gt;AppModule -->
<g id="edge13" class="edge">
<title>AppRoutingModule&#45;&gt;AppModule</title>
<path fill="none" stroke="#000000" d="M2809,-122.0098C2809,-146.4207 2809,-187 2809,-187 2809,-187 1428.6963,-187 1428.6963,-187"/>
<polygon fill="#000000" stroke="#000000" points="1428.6963,-183.5001 1418.6963,-187 1428.6962,-190.5001 1428.6963,-183.5001"/>
</g>
<!-- RouterModule  -->
<g id="node23" class="node">
<title>RouterModule </title>
<polygon fill="#fb8072" stroke="#000000" points="3014.6523,-190 2913.3477,-190 2913.3477,-154 3014.6523,-154 3014.6523,-190"/>
<text text-anchor="middle" x="2964" y="-167.8" font-family="Times,serif" font-size="14.00" fill="#000000">RouterModule </text>
</g>
<!-- AppRoutingModule&#45;&gt;RouterModule  -->
<g id="edge22" class="edge">
<title>AppRoutingModule&#45;&gt;RouterModule </title>
<path fill="none" stroke="#000000" stroke-dasharray="5,2" d="M2873.3874,-110C2915.9734,-110 2964,-110 2964,-110 2964,-110 2964,-143.7333 2964,-143.7333"/>
<polygon fill="#000000" stroke="#000000" points="2960.5001,-143.7333 2964,-153.7333 2967.5001,-143.7333 2960.5001,-143.7333"/>
</g>
<!-- HttpClientModule -->
<g id="node15" class="node">
<title>HttpClientModule</title>
<polygon fill="#8dd3c7" stroke="#000000" points="2428.1611,-122 2425.1611,-126 2404.1611,-126 2401.1611,-122 2309.8389,-122 2309.8389,-86 2428.1611,-86 2428.1611,-122"/>
<text text-anchor="middle" x="2369" y="-99.8" font-family="Times,serif" font-size="14.00" fill="#000000">HttpClientModule</text>
</g>
<!-- HttpClientModule&#45;&gt;AppModule -->
<g id="edge14" class="edge">
<title>HttpClientModule&#45;&gt;AppModule</title>
<path fill="none" stroke="#000000" d="M2369,-122.1686C2369,-143.498 2369,-176 2369,-176 2369,-176 1428.6762,-176 1428.6762,-176"/>
<polygon fill="#000000" stroke="#000000" points="1428.6762,-172.5001 1418.6762,-176 1428.6761,-179.5001 1428.6762,-172.5001"/>
</g>
<!-- ReactiveFormsModule -->
<g id="node16" class="node">
<title>ReactiveFormsModule</title>
<polygon fill="#8dd3c7" stroke="#000000" points="2292.3047,-122 2289.3047,-126 2268.3047,-126 2265.3047,-122 2147.6953,-122 2147.6953,-86 2292.3047,-86 2292.3047,-122"/>
<text text-anchor="middle" x="2220" y="-99.8" font-family="Times,serif" font-size="14.00" fill="#000000">ReactiveFormsModule</text>
</g>
<!-- ReactiveFormsModule&#45;&gt;AppModule -->
<g id="edge15" class="edge">
<title>ReactiveFormsModule&#45;&gt;AppModule</title>
<path fill="none" stroke="#000000" d="M2220,-122.2228C2220,-142.3652 2220,-172 2220,-172 2220,-172 1428.8045,-172 1428.8045,-172"/>
<polygon fill="#000000" stroke="#000000" points="1428.8045,-168.5001 1418.8045,-172 1428.8045,-175.5001 1428.8045,-168.5001"/>
</g>
<!-- FormsModule -->
<g id="node17" class="node">
<title>FormsModule</title>
<polygon fill="#8dd3c7" stroke="#000000" points="2129.8288,-122 2126.8288,-126 2105.8288,-126 2102.8288,-122 2034.1712,-122 2034.1712,-86 2129.8288,-86 2129.8288,-122"/>
<text text-anchor="middle" x="2082" y="-99.8" font-family="Times,serif" font-size="14.00" fill="#000000">FormsModule</text>
</g>
<!-- FormsModule&#45;&gt;AppModule -->
<g id="edge16" class="edge">
<title>FormsModule&#45;&gt;AppModule</title>
<path fill="none" stroke="#000000" d="M2082,-122.1061C2082,-141.3391 2082,-169 2082,-169 2082,-169 1428.729,-169 1428.729,-169"/>
<polygon fill="#000000" stroke="#000000" points="1428.729,-165.5001 1418.729,-169 1428.7289,-172.5001 1428.729,-165.5001"/>
</g>
<!-- AngularFireModule.initializeApp(args) -->
<g id="node18" class="node">
<title>AngularFireModule.initializeApp(args)</title>
<polygon fill="#8dd3c7" stroke="#000000" points="2016.7057,-122 2013.7057,-126 1992.7057,-126 1989.7057,-122 1779.2943,-122 1779.2943,-86 2016.7057,-86 2016.7057,-122"/>
<text text-anchor="middle" x="1898" y="-99.8" font-family="Times,serif" font-size="14.00" fill="#000000">AngularFireModule.initializeApp(args)</text>
</g>
<!-- AngularFireModule.initializeApp(args)&#45;&gt;AppModule -->
<g id="edge17" class="edge">
<title>AngularFireModule.initializeApp(args)&#45;&gt;AppModule</title>
<path fill="none" stroke="#000000" d="M1898,-122.302C1898,-140.2699 1898,-165 1898,-165 1898,-165 1428.7549,-165 1428.7549,-165"/>
<polygon fill="#000000" stroke="#000000" points="1428.755,-161.5001 1418.7549,-165 1428.7549,-168.5001 1428.755,-161.5001"/>
</g>
<!-- AngularFireAnalyticsModule -->
<g id="node19" class="node">
<title>AngularFireAnalyticsModule</title>
<polygon fill="#8dd3c7" stroke="#000000" points="1761.6232,-122 1758.6232,-126 1737.6232,-126 1734.6232,-122 1580.3768,-122 1580.3768,-86 1761.6232,-86 1761.6232,-122"/>
<text text-anchor="middle" x="1671" y="-99.8" font-family="Times,serif" font-size="14.00" fill="#000000">AngularFireAnalyticsModule</text>
</g>
<!-- AngularFireAnalyticsModule&#45;&gt;AppModule -->
<g id="edge18" class="edge">
<title>AngularFireAnalyticsModule&#45;&gt;AppModule</title>
<path fill="none" stroke="#000000" d="M1671,-122.0336C1671,-139.0597 1671,-162 1671,-162 1671,-162 1428.8108,-162 1428.8108,-162"/>
<polygon fill="#000000" stroke="#000000" points="1428.8108,-158.5001 1418.8108,-162 1428.8108,-165.5001 1428.8108,-158.5001"/>
</g>
<!-- AngularFirestoreModule -->
<g id="node20" class="node">
<title>AngularFirestoreModule</title>
<polygon fill="#8dd3c7" stroke="#000000" points="2601.6811,-122 2598.6811,-126 2577.6811,-126 2574.6811,-122 2446.3189,-122 2446.3189,-86 2601.6811,-86 2601.6811,-122"/>
<text text-anchor="middle" x="2524" y="-99.8" font-family="Times,serif" font-size="14.00" fill="#000000">AngularFirestoreModule</text>
</g>
<!-- AngularFirestoreModule&#45;&gt;AppModule -->
<g id="edge19" class="edge">
<title>AngularFirestoreModule&#45;&gt;AppModule</title>
<path fill="none" stroke="#000000" d="M2524,-122.0109C2524,-144.4852 2524,-180 2524,-180 2524,-180 1428.8407,-180 1428.8407,-180"/>
<polygon fill="#000000" stroke="#000000" points="1428.8407,-176.5001 1418.8407,-180 1428.8406,-183.5001 1428.8407,-176.5001"/>
</g>
<!-- RouterModule.forRoot(args) -->
<g id="node22" class="node">
<title>RouterModule.forRoot(args)</title>
<polygon fill="#8dd3c7" stroke="#000000" points="3216.8419,-190 3213.8419,-194 3192.8419,-194 3189.8419,-190 3039.1581,-190 3039.1581,-154 3216.8419,-154 3216.8419,-190"/>
<text text-anchor="middle" x="3128" y="-167.8" font-family="Times,serif" font-size="14.00" fill="#000000">RouterModule.forRoot(args)</text>
</g>
<!-- RouterModule.forRoot(args)&#45;&gt;AppRoutingModule -->
<g id="edge21" class="edge">
<title>RouterModule.forRoot(args)&#45;&gt;AppRoutingModule</title>
<path fill="none" stroke="#000000" d="M3128,-153.7079C3128,-131.7943 3128,-98 3128,-98 3128,-98 2883.5544,-98 2883.5544,-98"/>
<polygon fill="#000000" stroke="#000000" points="2883.5544,-94.5001 2873.5544,-98 2883.5544,-101.5001 2883.5544,-94.5001"/>
</g>
</g>
</svg>
